<svg width="100" height="100" viewBox="0 0 100 100" fill="none" xmlns="http://www.w3.org/2000/svg">
<path d="M48.5188 12.5C37.3119 12.5116 26.5674 16.9686 18.643 24.893C10.7186 32.8174 6.26158 43.5619 6.25 54.7687C6.25 66.0625 10.6438 76.675 18.625 84.6563C22.5413 88.5946 27.2 91.7168 32.3313 93.8421C37.4627 95.9674 42.9647 97.0535 48.5188 97.0375C59.7256 97.0259 70.4701 92.5689 78.3945 84.6445C86.3189 76.7201 90.7759 65.9756 90.7875 54.7687C90.7759 43.5619 86.3189 32.8174 78.3945 24.893C70.4701 16.9686 59.7256 12.5116 48.5188 12.5ZM22.9687 84.3813C25.8902 80.5805 29.6322 77.4885 33.9155 75.336C38.1989 73.1835 42.9131 72.026 47.7062 71.95C47.8562 71.9563 48 71.9938 48.15 71.9938H48.2938C48.4313 71.9938 48.5562 71.9563 48.6937 71.95C53.5533 72.0327 58.3291 73.2283 62.6544 75.4451C66.9796 77.6619 70.739 80.8408 73.6437 84.7375C66.616 90.6686 57.7148 93.9191 48.5188 93.9125C39.1298 93.9293 30.0528 90.5432 22.9687 84.3813ZM48.1687 68.7937C48.0125 68.7937 47.8625 68.8188 47.7062 68.825C44.0582 68.7014 40.6022 67.1598 38.073 64.5279C35.5438 61.896 34.1409 58.3814 34.1625 54.7312C34.169 52.8836 34.5403 51.0554 35.2549 49.3515C35.9695 47.6476 37.0135 46.1016 38.327 44.8021C39.6404 43.5026 41.1975 42.4751 42.9089 41.7787C44.6203 41.0823 46.4524 40.7306 48.3 40.7438C50.1477 40.7503 51.9759 41.1215 53.6797 41.8362C55.3836 42.5508 56.9296 43.5948 58.2292 44.9082C59.5287 46.2217 60.5561 47.7788 61.2525 49.4902C61.949 51.2016 62.3007 53.0336 62.2875 54.8813C62.2875 62.4563 56.225 68.6125 48.7 68.8312C48.525 68.825 48.35 68.7937 48.1687 68.7937ZM75.9625 82.6375C71.1297 76.2598 64.2555 71.7329 56.4875 69.8125C59.1906 68.3313 61.4454 66.1503 63.0157 63.498C64.586 60.8457 65.4138 57.8198 65.4125 54.7375C65.4051 52.4797 64.9525 50.2455 64.0805 48.1629C63.2086 46.0802 61.9344 44.19 60.3309 42.6005C58.7274 41.011 56.8262 39.7533 54.736 38.8995C52.6458 38.0458 50.4078 37.6127 48.15 37.625C45.8922 37.6324 43.658 38.085 41.5754 38.957C39.4927 39.8289 37.6025 41.1031 36.013 42.7066C34.4235 44.3101 33.1658 46.2113 32.312 48.3015C31.4583 50.3917 31.0252 52.6297 31.0375 54.8875C31.049 57.941 31.8797 60.9355 33.443 63.5585C35.0062 66.1816 37.2448 68.337 39.925 69.8C32.2881 71.6758 25.5051 76.0679 20.6687 82.2688C13.4148 74.9625 9.35538 65.077 9.38125 54.7813C9.39283 44.4032 13.5206 34.4536 20.859 27.1152C28.1973 19.7769 38.147 15.6491 48.525 15.6375C58.903 15.6491 68.8527 19.7769 76.191 27.1152C83.5294 34.4536 87.6572 44.4032 87.6688 54.7813C87.6661 59.9693 86.6295 65.1048 84.6196 69.8877C82.6096 74.6706 79.6666 79.0049 75.9625 82.6375Z" fill="#DC0101"/>
</svg>
